<svg xmlns="http://www.w3.org/2000/svg" xmlns:xlink="http://www.w3.org/1999/xlink" height="300px"
    width="300px" fill="#000000" version="1.1" x="0px" y="0px" viewBox="0 0 100 100"
    enable-background="new 0 0 100 100" xml:space="preserve"><g><g><path d="M82.509,34.632c-3.992-4.434-9.5-6.978-15.117-6.978c-5.742,0-11.135,2.674-14.999,7.387    c-3.864-4.713-9.257-7.387-14.999-7.387c-5.616,0-11.125,2.544-15.116,6.978c-4.046,4.496-5.931,10.226-5.306,16.138    c0.415,3.934,2.326,8.657,5.673,14.043c-2.617,4.886-2.666,10.498,0.395,14.582c2.214,2.953,5.681,4.67,9.762,4.838    c0.22,0.012,0.438,0.014,0.657,0.014c1.402,0,2.814-0.185,4.205-0.542c7.329,7.825,13.929,13.596,13.995,13.655L52.393,98    l0.734-0.64c0.065-0.06,6.694-5.856,14.043-13.707c1.451,0.389,2.928,0.594,4.395,0.594c0.22,0,0.438-0.002,0.657-0.014    c4.08-0.168,7.546-1.885,9.761-4.838c3.105-4.142,3.014-9.855,0.286-14.789c3.269-5.3,5.135-9.952,5.545-13.836    C88.438,44.858,86.554,39.128,82.509,34.632z M85.591,50.535c-0.352,3.333-1.924,7.362-4.671,11.988    c-1.073-1.435-2.386-2.765-3.924-3.921c-0.494-0.37-1.194-0.27-1.564,0.224c-0.37,0.492-0.271,1.193,0.224,1.563    c6.277,4.708,8.313,12.634,4.539,17.666c-1.804,2.407-4.667,3.807-8.064,3.945c-3.485,0.149-7.095-1.043-10.169-3.351    c-0.492-0.368-1.193-0.271-1.563,0.224c-0.371,0.494-0.271,1.194,0.224,1.565c1.33,0.998,2.755,1.799,4.229,2.416    c-5.582,5.902-10.623,10.522-12.459,12.167c-1.828-1.64-6.84-6.229-12.396-12.101c1.536-0.62,3.021-1.444,4.404-2.482    c0.493-0.371,0.593-1.071,0.224-1.565c-0.37-0.494-1.071-0.592-1.563-0.224C39.986,80.957,36.38,82.146,32.894,82    c-3.398-0.139-6.262-1.538-8.066-3.945c-3.773-5.032-1.739-12.958,4.54-17.666c0.493-0.37,0.594-1.071,0.224-1.563    c-0.37-0.493-1.071-0.594-1.564-0.224c-1.602,1.203-2.961,2.595-4.055,4.097c-2.813-4.699-4.42-8.787-4.778-12.164    c-0.557-5.272,1.126-10.389,4.742-14.408c3.567-3.964,8.473-6.237,13.458-6.237c5.479,0,10.612,2.784,14.091,7.64l0.908,1.268    l0.909-1.268c3.478-4.855,8.612-7.64,14.09-7.64c4.985,0,9.891,2.273,13.457,6.237C84.466,40.146,86.149,45.262,85.591,50.535z"/><circle
    cx="41.467" cy="54.484" r="2.514" /><circle cx="63.316" cy="54.484" r="2.514" /><path
    d="M42.4,48.264c0.569,0.23,1.223-0.05,1.451-0.623c0.229-0.572-0.051-1.223-0.623-1.453    c-2.49-0.994-4.754-1.036-6.728-0.122c-3.153,1.462-4.314,4.849-4.362,4.993c-0.196,0.585,0.12,1.218,0.706,1.413    c0.116,0.04,0.237,0.056,0.353,0.056c0.469,0,0.905-0.293,1.061-0.763c0.009-0.027,0.931-2.626,3.184-3.671    C38.835,47.449,40.503,47.504,42.4,48.264z" /><path
    d="M67.561,45.969c-0.219-0.024-5.412-0.558-10.629,4.135c-0.458,0.411-0.495,1.116-0.083,1.576    c0.222,0.245,0.524,0.369,0.832,0.369c0.266,0,0.533-0.094,0.747-0.284c4.428-3.985,8.699-3.595,8.885-3.575    c0.609,0.066,1.162-0.374,1.229-0.984C68.612,46.593,68.174,46.04,67.561,45.969z" /><path
    d="M56.233,67.094c-1.885-0.201-6.304-0.677-6.656-0.688c-0.63-0.011-1.117,0.457-1.146,1.066    c-0.026,0.611,0.453,1.132,1.063,1.168c0.331,0.017,4.162,0.426,6.5,0.676c0.041,0.007,0.081,0.007,0.121,0.007    c0.563,0,1.047-0.425,1.109-1C57.29,67.712,56.845,67.162,56.233,67.094z" /><path
    d="M31.409,24.144c0.891,1.004,2.28,1.57,3.766,1.57c0.311,0,0.622-0.024,0.937-0.074c2.127-0.339,2.922-2.054,3.021-3.545    l5.707-1.57l0.044,0.934c0.027,0.617,0.561,1.105,1.162,1.066c3.262-0.139,5.926,0.454,8.248,0.969    c1.701,0.377,3.17,0.703,4.609,0.704l0,0c0.718,0,1.368-0.083,1.987-0.253c4.006-1.102,7.492-3.209,9.817-5.935    c2.427-2.847,3.319-6.035,2.511-8.975c-1.222-4.441-6.088-7.311-12.396-7.311c-1.923,0-3.881,0.271-5.82,0.804    c-2.041,0.562-3.619,2.045-5.44,3.764c-1.744,1.641-3.72,3.501-6.594,5.05c-0.54,0.292-0.744,0.968-0.452,1.511l0.441,0.825    l-5.709,1.57c-0.847-1.231-2.41-2.299-4.408-1.501c-1.716,0.684-2.97,2.098-3.275,3.691c-0.229,1.195,0.093,2.367,0.905,3.357    C30.277,22.064,30.601,23.234,31.409,24.144z M51.092,7.919c1.674-1.576,2.996-2.821,4.501-3.235    c1.749-0.481,3.506-0.724,5.229-0.724c5.273,0,9.294,2.224,10.242,5.669c0.607,2.204-0.126,4.666-2.057,6.931    c-2.037,2.389-5.13,4.246-8.709,5.23c-0.424,0.117-0.879,0.173-1.396,0.173l0,0c-1.193,0-2.552-0.302-4.124-0.651    c-2.19-0.487-4.667-1.036-7.714-1.043l-0.17-3.736c-0.007-0.167-0.053-0.33-0.131-0.477l-1.768-3.296    C47.62,11.189,49.527,9.393,51.092,7.919z M31.758,17.858c0.161-0.839,0.91-1.637,1.908-2.035    c1.199-0.479,1.829,0.768,1.994,1.154l0.372,0.923l8.007-2.202l0.636,1.188l0.061,1.349l-8.004,2.201l0.151,0.984    c0.028,0.184,0.236,1.796-1.123,2.011c-1.062,0.171-2.113-0.133-2.682-0.773c-0.43-0.484-0.538-1.121-0.316-1.894l0.184-0.651    l-0.491-0.466C31.87,19.099,31.637,18.496,31.758,17.858z" /></g></g></svg>